<?xml version="1.0" standalone="no"?>
<!DOCTYPE svg PUBLIC "-//W3C//DTD SVG 20010904//EN"
 "http://www.w3.org/TR/2001/REC-SVG-20010904/DTD/svg10.dtd">
<svg version="1.0" xmlns="http://www.w3.org/2000/svg"
 width="512.000000pt" height="512.000000pt" viewBox="0 0 512.000000 512.000000"
 preserveAspectRatio="xMidYMid meet">
<metadata>
Created by potrace 1.11, written by Peter Selinger 2001-2013
</metadata>
<g transform="translate(0.000000,512.000000) scale(0.100000,-0.100000)"
fill="#000000" stroke="none">
<path d="M275 5099 c-120 -41 -219 -141 -255 -259 -20 -64 -20 -84 -18 -2300
l3 -2235 33 -70 c37 -77 105 -151 173 -186 102 -52 -27 -49 2289 -46 2431 3
2193 -6 2375 82 102 50 172 112 213 190 l27 50 2 2120 2 2120 -52 56 c-29 30
-77 82 -107 115 -70 77 -252 274 -310 336 l-44 48 -2136 0 c-2124 -1 -2135 -1
-2195 -21z m1695 -2535 l0 -2432 -44 -3 c-24 -2 -390 -4 -813 -3 l-768 1 -51
22 c-63 28 -116 81 -145 146 l-22 50 1 1485 c0 817 1 1495 1 1508 l1 22 858
-6 c471 -3 883 -6 915 -7 46 -2 57 1 55 13 -3 16 89 14 -1201 24 -340 2 -621
7 -624 10 -4 3 -6 316 -6 694 l0 689 25 54 c41 90 114 145 212 161 11 2 376 3
813 3 l793 0 0 -2431z m2504 2426 c3 -3 6 -122 7 -263 l2 -258 25 -19 c23 -19
41 -20 256 -20 l231 0 -1 -2023 c0 -1112 -4 -2035 -8 -2051 -24 -95 -163 -183
-341 -216 -55 -11 -336 -14 -1340 -14 l-1270 0 -3 2435 -2 2435 1219 -1 c671
0 1222 -2 1225 -5z m189 -102 c21 -24 80 -88 130 -142 147 -159 157 -170 157
-175 0 -11 -330 -6 -331 4 -5 35 -4 355 0 355 3 0 23 -19 44 -42z"/>
<path d="M893 4830 c-97 -34 -160 -98 -194 -195 -48 -137 5 -287 128 -365 l43
-28 -34 -6 c-20 -4 -72 -25 -118 -48 -152 -76 -281 -233 -323 -393 -18 -69
-30 -214 -18 -216 4 -1 41 -3 81 -3 l72 -2 1 55 c0 31 2 63 4 71 54 263 225
436 441 446 201 9 367 -113 450 -331 23 -61 32 -119 34 -230 0 -6 30 -11 75
-11 88 0 88 0 81 102 -11 153 -68 275 -181 390 -81 83 -151 127 -260 164 l-50
17 30 16 c45 23 94 75 123 132 35 68 39 176 10 255 -59 154 -240 236 -395 180z
m189 -106 c134 -68 164 -236 59 -338 -127 -124 -336 -44 -349 133 -3 48 0 69
18 106 49 101 176 148 272 99z"/>
<path d="M330 2777 c-33 -17 -50 -53 -50 -110 0 -63 22 -104 60 -114 17 -5
340 -8 719 -8 755 0 711 -3 736 60 7 17 11 44 9 60 -1 17 -3 40 -3 51 -1 12
-13 33 -27 47 l-26 26 -697 1 c-541 0 -702 -3 -721 -13z"/>
<path d="M326 2263 c-30 -16 -46 -49 -46 -97 0 -64 12 -98 42 -116 26 -16 79
-17 725 -17 l696 0 28 26 c23 21 29 35 30 71 2 76 0 88 -25 117 l-24 28 -700
1 c-579 1 -704 -2 -726 -13z"/>
<path d="M330 1754 c-36 -16 -53 -62 -48 -130 3 -39 11 -61 27 -77 l22 -22
697 -3 c640 -3 700 -2 729 14 38 20 46 40 45 110 0 59 -13 88 -45 106 -31 17
-1386 19 -1427 2z"/>
<path d="M390 1252 c-88 -5 -116 -41 -108 -139 4 -46 10 -61 32 -80 l27 -23
703 0 703 0 27 25 c28 26 29 32 27 110 -2 57 -21 92 -57 101 -24 6 -1262 12
-1354 6z"/>
<path d="M310 712 c-24 -25 -28 -36 -28 -88 1 -32 5 -68 10 -80 23 -50 13 -50
753 -48 512 0 696 4 712 13 33 17 45 46 44 111 0 64 -13 93 -48 109 -16 8
-246 11 -719 11 l-696 0 -28 -28z"/>
<path d="M2290 4377 c-45 -11 -64 -48 -61 -119 2 -67 13 -91 48 -107 26 -12
2168 -16 2210 -5 33 9 54 49 57 105 2 60 -14 103 -46 120 -18 10 -259 13
-1100 13 -593 1 -1091 -2 -1108 -7z"/>
<path d="M2274 3848 c-24 -11 -42 -42 -45 -73 -5 -66 2 -106 25 -132 l24 -27
1083 -1 c596 -1 1099 3 1117 8 40 10 63 44 66 99 4 57 -9 99 -37 120 -21 16
-94 18 -1117 17 -733 0 -1102 -4 -1116 -11z"/>
<path d="M2270 3323 c-32 -23 -43 -53 -41 -118 1 -49 6 -64 27 -85 l24 -25
1105 0 1105 0 26 26 c45 45 36 172 -14 201 -24 14 -146 15 -1119 15 -923 0
-1096 -2 -1113 -14z"/>
<path d="M2298 2808 c-56 -11 -75 -51 -69 -148 3 -37 20 -66 48 -79 17 -8 337
-11 1117 -11 l1093 0 27 26 c14 15 27 35 27 45 5 68 4 87 -4 112 -21 65 51 61
-1133 62 -590 0 -1088 -3 -1106 -7z"/>
<path d="M2256 2265 c-26 -24 -31 -45 -26 -125 2 -44 14 -66 42 -81 17 -9 298
-12 1115 -12 998 1 1096 2 1119 17 32 22 42 67 35 164 -1 7 -13 24 -27 37
l-27 25 -1102 0 -1102 0 -27 -25z"/>
<path d="M2273 1754 c-38 -19 -44 -35 -44 -110 0 -60 18 -100 52 -112 11 -4
512 -8 1114 -7 l1095 0 25 26 c21 21 27 36 28 80 2 75 -7 101 -42 122 -27 16
-101 17 -1113 17 -968 0 -1086 -2 -1115 -16z"/>
<path d="M2270 1228 c-34 -20 -43 -45 -41 -115 1 -60 14 -87 48 -102 33 -15
2168 -15 2210 -1 17 6 36 21 42 34 17 32 20 115 5 147 -28 57 46 54 -1142 54
-1010 0 -1097 -1 -1122 -17z"/>
<path d="M2323 722 c-17 -2 -43 -15 -57 -29 -22 -22 -26 -35 -26 -84 0 -67 13
-102 45 -119 32 -17 2191 -18 2223 -1 35 19 50 60 46 126 -3 49 -8 64 -29 83
-15 12 -38 22 -53 23 -125 2 -2124 3 -2149 1z"/>
</g>
</svg>
